<?xml version="1.0" standalone="no"?>
<!DOCTYPE svg PUBLIC "-//W3C//DTD SVG 20010904//EN"
 "http://www.w3.org/TR/2001/REC-SVG-20010904/DTD/svg10.dtd">
<svg version="1.0" xmlns="http://www.w3.org/2000/svg"
 width="1418.000000pt" height="1183.000000pt" viewBox="0 0 1418.000000 1183.000000"
 preserveAspectRatio="xMidYMid meet">

<g transform="translate(0.000000,1183.000000) scale(0.100000,-0.100000)"
fill="#000000" stroke="none">
<path d="M7155 10874 c-398 -58 -659 -136 -959 -286 -381 -191 -716 -479 -961
-825 -17 -24 -33 -43 -36 -43 -4 0 -62 98 -129 218 -197 348 -240 405 -338
450 -101 46 -145 43 -432 -33 -442 -115 -3032 -803 -3338 -885 -321 -87 -354
-102 -416 -187 -83 -115 -91 -223 -32 -453 65 -252 206 -771 237 -872 25 -84
37 -105 81 -153 63 -70 29 -53 866 -436 372 -171 681 -314 686 -319 5 -5 85
-294 177 -642 191 -715 275 -1018 295 -1066 19 -47 111 -140 166 -168 70 -35
105 -41 535 -84 218 -22 398 -42 400 -44 7 -7 5 -7 -832 -181 -1039 -216
-1402 -293 -1444 -308 -53 -18 -136 -101 -168 -165 -50 -101 -41 -180 78 -742
58 -271 71 -320 99 -365 30 -48 105 -114 156 -136 89 -40 117 -38 509 42 200
41 366 71 369 68 3 -3 78 -352 166 -775 197 -944 243 -1150 266 -1200 25 -53
99 -125 158 -154 61 -29 174 -38 272 -21 115 20 642 131 749 157 132 33 175
53 225 106 24 23 228 261 454 527 l411 484 6 -64 c4 -35 7 -147 8 -249 2 -231
12 -305 53 -382 53 -99 139 -157 253 -169 68 -7 855 2 1762 20 l453 9 55 26
c30 14 80 48 110 77 l55 52 37 -38 c70 -72 115 -86 632 -191 189 -38 340 -64
378 -64 95 0 165 31 239 104 73 73 90 113 134 321 18 83 33 151 35 153 2 2
115 -147 253 -330 282 -377 317 -419 375 -452 66 -39 841 -203 1004 -213 89
-6 95 -5 155 25 35 17 84 52 110 78 83 82 60 -17 505 2164 237 1166 232 1126
178 1236 -31 62 -90 126 -142 152 -90 46 -650 158 -1513 302 -390 65 -430 74
-497 106 -55 27 -125 46 -285 80 -116 24 -213 46 -215 48 -7 6 12 9 647 107
842 128 799 117 909 234 75 81 64 45 199 649 l38 169 585 232 c911 361 900
356 1049 456 245 164 482 461 593 744 85 215 111 379 104 649 -4 162 -9 207
-31 294 -75 295 -198 525 -391 730 -197 208 -394 338 -645 424 -91 31 -285 75
-1114 253 -808 173 -803 173 -914 140 -112 -33 -136 -64 -453 -567 -110 -175
-204 -318 -209 -318 -5 0 -34 48 -65 108 -120 226 -254 409 -440 601 -337 347
-737 577 -1229 706 -256 68 -336 77 -691 80 -176 2 -333 1 -350 -1z m765 -287
c706 -125 1272 -502 1636 -1089 77 -124 194 -368 239 -498 109 -315 150 -589
149 -995 -1 -655 -130 -1130 -432 -1590 -296 -452 -733 -771 -1268 -924 -519
-150 -1026 -148 -1558 5 -660 190 -1157 610 -1456 1229 -131 272 -203 535
-242 880 -16 144 -15 588 1 735 42 376 127 670 280 966 355 685 929 1115 1691
1268 195 39 266 45 550 42 232 -3 283 -7 410 -29z m-3291 -441 c15 -8 35 -29
44 -48 25 -49 277 -1009 277 -1056 0 -82 22 -73 -665 -255 -556 -148 -620
-166 -616 -183 1 -11 169 -644 372 -1409 333 -1252 369 -1394 360 -1426 -21
-70 -17 -68 -622 -229 -310 -82 -572 -150 -582 -150 -36 0 -89 33 -103 64 -8
17 -181 656 -383 1419 -203 763 -370 1390 -373 1392 -2 2 -282 -70 -623 -160
-363 -97 -628 -162 -641 -159 -54 14 -61 32 -207 581 -136 513 -139 529 -126
567 8 22 21 43 29 48 15 9 3795 1016 3818 1017 7 1 25 -5 41 -13z m6973 -312
c482 -104 899 -199 947 -216 122 -43 231 -102 341 -184 286 -215 472 -521 526
-867 12 -76 15 -139 11 -252 -8 -220 -45 -363 -142 -560 -156 -316 -448 -565
-788 -674 -161 -51 -258 -64 -447 -58 -157 5 -180 9 -477 74 -172 38 -313 68
-313 67 0 -2 -70 -326 -155 -720 -152 -708 -155 -718 -187 -751 -25 -25 -40
-33 -69 -33 -63 0 -1011 209 -1039 229 -14 10 -31 35 -39 57 -13 38 1 107 403
1974 229 1064 423 1962 432 1995 17 72 49 105 100 105 19 0 422 -84 896 -186z
m-3726 -4798 c26 -19 32 -114 33 -507 1 -289 0 -306 -18 -326 -18 -19 -35 -21
-183 -27 -90 -3 -350 -8 -578 -12 -228 -3 -415 -7 -415 -7 0 -1 1 -71 3 -155
l3 -152 411 2 411 3 19 -26 c19 -25 20 -49 25 -410 4 -334 3 -387 -10 -404
-20 -26 -119 -32 -503 -34 -155 -1 -295 -4 -311 -7 l-30 -6 5 -156 c2 -87 6
-159 8 -160 1 -2 258 0 570 6 579 10 605 9 619 -27 3 -9 9 -190 12 -402 l6
-386 -26 -17 c-23 -16 -126 -19 -1079 -35 -588 -9 -1067 -13 -1085 -9 -18 5
-38 18 -44 29 -12 23 -66 3110 -55 3154 14 55 -14 53 866 68 1155 20 1322 20
1346 3z m1619 -112 c231 -47 432 -92 448 -100 20 -11 38 -39 67 -102 74 -161
755 -1580 757 -1578 2 1 66 312 143 691 78 378 147 700 155 715 8 15 25 30 39
34 24 6 785 -143 837 -165 61 -24 76 66 -261 -1588 -307 -1504 -312 -1526
-341 -1553 -18 -17 -40 -28 -57 -28 -15 1 -219 40 -455 89 -363 75 -431 91
-452 111 -29 27 -1 -31 -441 912 -186 400 -342 724 -345 720 -3 -4 -68 -311
-143 -682 -134 -658 -138 -676 -167 -702 -16 -16 -39 -28 -50 -28 -11 0 -197
36 -412 80 -358 73 -394 82 -414 105 -15 16 -23 39 -23 61 0 29 584 2916 611
3017 11 43 41 77 67 77 9 0 206 -39 437 -86z m-4735 -21 c29 -27 33 -43 110
-414 44 -213 80 -403 80 -422 0 -69 8 -66 -512 -173 -379 -79 -478 -102 -478
-114 0 -9 99 -491 220 -1073 121 -581 220 -1072 220 -1090 0 -35 -26 -71 -57
-81 -58 -18 -841 -176 -874 -176 -67 0 -80 22 -117 200 -284 1365 -419 2011
-423 2015 -3 2 -220 -41 -483 -96 -449 -93 -481 -98 -503 -84 -13 9 -28 26
-33 38 -11 26 -170 790 -170 817 0 10 9 28 19 41 18 22 147 51 1488 331 807
168 1471 307 1475 307 4 1 21 -11 38 -26z"/>
<path d="M7235 9244 c-143 -289 -262 -527 -265 -529 -3 -1 -265 -41 -582 -86
-318 -46 -578 -87 -578 -90 0 -4 189 -190 420 -415 373 -363 420 -412 415
-434 -15 -74 -194 -1134 -191 -1137 1 -2 234 119 517 268 283 149 519 271 525
272 6 0 243 -122 528 -272 285 -150 519 -271 521 -269 1 2 -42 260 -96 573
-54 314 -98 575 -99 582 0 6 189 195 420 419 230 225 416 412 412 415 -4 4
-263 43 -577 89 -313 45 -574 86 -580 90 -5 5 -125 243 -265 529 -140 286
-258 520 -261 520 -3 1 -122 -236 -264 -525z"/>
<path d="M11615 8808 c-2 -7 -34 -152 -70 -323 -36 -170 -68 -317 -71 -326 -4
-13 26 -22 181 -54 171 -35 189 -37 239 -26 173 39 284 155 294 307 6 90 -14
153 -74 234 -71 97 -121 123 -311 165 -183 40 -182 40 -188 23z"/>
</g>
</svg>
